<?xml version="1.0" encoding="utf8" standalone="no"?>
<svg enable-background="new 0 0 309.231 315.385" viewBox="0 0 309.231 315.385" xml:space="preserve" xmlns="http://www.w3.org/2000/svg"><defs><linearGradient gradientUnits="userSpaceOnUse" id="SVGID_1_" x1="129.2153" x2="301.2944">
		<stop offset="0" stop-color="#609b2e"></stop>
		<stop offset=".6129" stop-color="#aec818"></stop>
	</linearGradient><linearGradient gradientUnits="userSpaceOnUse" id="SVGID_2_" x1="159.0742" x2="227.6606">
		<stop offset="0" stop-color="#609b2e"></stop>
		<stop offset=".6129" stop-color="#aec818"></stop>
	</linearGradient><linearGradient gradientUnits="userSpaceOnUse" id="SVGID_3_" x1="192.5288" x2="203.4604">
		<stop offset="0" stop-color="#609b2e"></stop>
		<stop offset=".6129" stop-color="#aec818"></stop>
	</linearGradient><linearGradient gradientUnits="userSpaceOnUse" id="SVGID_4_" x1="211.3706" x2="242.1265">
		<stop offset="0" stop-color="#609b2e"></stop>
		<stop offset=".6129" stop-color="#aec818"></stop>
	</linearGradient><linearGradient gradientUnits="userSpaceOnUse" id="SVGID_5_" x1="10.7217" x2="73.8018">
		<stop offset="0" stop-color="#609b2e"></stop>
		<stop offset=".6129" stop-color="#aec818"></stop>
	</linearGradient><linearGradient gradientUnits="userSpaceOnUse" id="SVGID_6_" x1="68.4854" x2="145.4663">
		<stop offset="0" stop-color="#609b2e"></stop>
		<stop offset=".6129" stop-color="#aec818"></stop>
	</linearGradient><linearGradient gradientUnits="userSpaceOnUse" id="SVGID_7_" x1="76.8779" x2="123.9419">
		<stop offset="0" stop-color="#609b2e"></stop>
		<stop offset=".6129" stop-color="#aec818"></stop>
	</linearGradient></defs>

	<path d="m300.515,155.998c0,80.737-65.064,146.063-145.373,146.063-80.289,0-145.398-65.326-145.398-146.063 0-80.612 65.11-145.966 145.398-145.966 80.309,0 145.373,65.354 145.373,145.966z" fill="none" stroke="#57ab2b"></path>
	
	<path d="m258.185,53.013c0,0-20.436-6.708-25.05-11.933l-17.145-1.337-3.882,4.017 1.929,4.623h3.277l.604,6.274-5.523-3.287-3.711,6.577-1.647-.607h-2.24c0,0-.617-.738-1.337-.445-.604.445-1.337-1.941-1.337-1.941l-3.29.604-1.336,1.337-2.24-1.645h-3.589l-.727,2.09 2.356.299-2.069,2.539 .751,1.339c-2.991.314-7.898-1.944-7.898-1.944s-1.349-.592-3.302,0c-2.075.604-4.657,4.321-4.657,4.321l-3.381,3.595 3.729,3.601h2.533l3.406,1.028 .616,1.34 6.567-.312 5.371-4.315 5.212-1.032 5.225,2.075c0,0 5.652-1.043 4.914-.439-.593.727 2.979,5.664 2.979,5.664l2.393,5.652 2.233,3.29 .452,3.589 1.63-.293 5.523.604-1.923-2.997-3.284-2.24-2.398-6.256-1.642-4.022 2.393-.912 1.94,3.585 2.222,3.284 5.372,2.692v3.57l1.343,2.1 5.225,1.917 4.626-2.387 1.349-2.234-1.953-2.68h4.926l4.004,4.34 6.586,3.274-.452,3.58 4.017,4.022-1.642,1.648-8.197-3.583-6.714-3.738-12.061.745 .293,5.231 7.611,4.932 8.185,3.427 6.567,3.894-.592,4.904-2.387,4.629-3.876-2.539-8.637-8.957-1.959.314-7.294-5.673h-3.283l-1.05,4.022-2.229-.308-.293-2.667-13.274-9.858 2.979-3.403 4.021-1.221-2.38-3.437h-2.252l-5.646-3.863-5.219,1.336-6.879-5.667-4.303.281-4.944-.58-5.041-1.954-6.269.604-6.557,4.624-6.259,1.031-2.982,1.953-3.583,1.044-1.965,2.533-5.643-.299-6.259,5.667-.613,3.274-1.328,5.255-5.963,6.256-.745,2.97v4.632l2.393,5.973 2.981,5.96 6.564,11.941 2.674,1.639 4.922.314 6.262,4.907 10.883.751 1.634,2.551 2.374-.299 4.206,4.929 3.723-.604 1.19,8.194-2.887,4.028-3.382,2.987 1.355,8.219 1.031,13.27c0,0-1.031,4.205-1.636,4.94-.751.604-5.377,3.567-5.377,3.567l-6.554,19.534 2.035,9.854-1.288,8.673-4.022,5.213-.305,5.071-1.041,3.278 4.019,1.221 4.272-1.972h6.294l9.253,3 6.867-3.589 8.947-5.359 5.213-.604 .744-7.914 2.558-2.972 5.938-.751 4.346-3.58h3.577l12.812-11.493c0,0 1.037-3.747 1.037-5.065 0-1.209 1.361-6.866 1.361-6.866l4.901-7.321 4.919-.299 5.353-2.362 10.163-7.48 4.321-7.327 1.647-2.96-3.576-1.355-1.667,1.923-4.754-3.869-.293,1.343-.617-6.4c0,0 1.648-1.639-.727-3.286-2.252-1.639-3.881-6.58-3.881-6.58l-1.643-4.614-.604-7.315 .604-2.841-.299-5.078 .299-10.144 3.876.897-1.178,10.602 2.233,4.907v8.072l.592,5.508 2.375,7.017 5.683,7.189 2.532-1.959h4.022l13.123-14.481 .744-4.327-2.68-3.702-4.034-5.237h-1.196l-2.68,1.92-.616-4.596-2.063-3.589c0,0-1.947,1.032-1.648-2.249 .305-3.421.751-5.368.751-5.368l2.954-1.651 2.246,5.963 1.349,4.624 3.589,2.994 4.022,3.592 5.811,5.667 2.1,6.857 1.33,6.723 3.271,1.196-.274,10.293-1.067,16.55 2.99,1.648c.008.005 24.794-69.93-38.304-139.064z" fill="url(#SVGID_1_)"></path>
	
	<path d="m162.114,10.288c28.572-2.191 65.547,18.863 65.547,18.863h-9.229l-17.175-8.273-3.51,3.412-11.914.964-4.389-2.185-14.955-6.696-2.188,2.173-.839,4.038-4.388-1.349 .482-6.204 2.558-4.743z" fill="url(#SVGID_2_)"></path>
	
	<path d="m192.529,53.013 10.931-.494-1.336-4.395-1.343-3.155-.842-4.749-2.698-.836 .507,6.07-3.901,4.388z" fill="url(#SVGID_3_)"></path>
	
	<path d="m217.083,241.447 4.364-3.895 1.343-3.527 4.034-3.04 7.397-.497 6.562-5.228 1.343,3.534-3.876,3.879-3.186.481-5.2,5.731-9.748,10.94-8.746.867v-3.892l2.673-3.033c-.836-1.843-.836-1.343-.836-1.843v.5s3.876,0 3.876-.977z" fill="url(#SVGID_4_)"></path>
	
	<path d="m31.999,234.511-2.673-18.991-1.694-3.033-1.349-4.383 .852-6.226 3.524-2.185-.375-7.557 4.752-3.533v-4.85l11.432-14.987 4.367,1.33 1.834-2.173 11.877-22.049 6.616-1.327 2.64-3.04-.455-3.046-4.019-7.544-5.716-3.54v-8.386l-8.249-4.401 .345-10.943 1.834-3.516-1.834-3.043-4.876-2.701-1.181-4.855 .839-8.414-5.375-7.049-6.896,2.686h-5.713c0,0-16.803,29.932-20.328,51.496-3.537,21.655.485,1.819.485,1.819l3.04,11.932 2.191,11.444-.357,10.104 4.379,7.901-2.191,7.91-.494,13.65 2.686,7.535 1.693,8.765 1.337,8.051 2.686,4.363" fill="url(#SVGID_5_)"></path>
	
	<path d="m145.466,11.137-2.191,3.894-6.576.479-4.01,7.56c0,0-6.213,7.062-5.212,4.724 .842-2.176-1.001-2.539-1.001-3.888 0-1.325-6.961-1.325-6.961-1.325l-3.5,4.022-14.929,1.193c0,0-4.428,1.355-5.719,2.334l-1.346.842h-1.834l-2.188.366-2.179,2.194-1.349,1.825-.841,2.193-1.691,1.834-7.553-1.355h-7.901c.003,0 39.6-28.736 76.981-26.892z" fill="url(#SVGID_6_)"></path>
	
	<path d="m76.878,279.427 40.863,12.787 6.201,6.57c0,0-29.083-6.57-47.064-19.357z" fill="url(#SVGID_7_)"></path>

</svg>
